<svg viewBox="0 0 700 300" width="700" height="300" xmlns="http://www.w3.org/2000/svg" style="font-family:monospace;background:#0f172a;border-radius:12px">
  <text x="350" y="25" text-anchor="middle" font-size="14" font-weight="bold" fill="#e2e8f0">vibe-clone — Design Token Extraction</text>
  <rect x="30" y="50" width="100" height="50" rx="6" fill="#3b82f6" stroke="#1e40af" stroke-width="2"/>
  <text x="80" y="75" text-anchor="middle" font-size="12" fill="#f1f5f9" font-weight="bold">URL Input</text>
  <text x="80" y="92" text-anchor="middle" font-size="10" fill="#cbd5e1">https://example.com</text>
  <line x1="130" y1="75" x2="170" y2="75" stroke="#64748b" stroke-width="2" marker-end="url(#arrowhead)"/>
  <rect x="170" y="50" width="110" height="50" rx="6" fill="#1e293b" stroke="#64748b" stroke-width="2"/>
  <text x="225" y="75" text-anchor="middle" font-size="12" fill="#f1f5f9" font-weight="bold">Scraper</text>
  <text x="225" y="92" text-anchor="middle" font-size="10" fill="#cbd5e1">Puppeteer</text>
  <line x1="280" y1="75" x2="320" y2="75" stroke="#64748b" stroke-width="2" marker-end="url(#arrowhead)"/>
  <rect x="320" y="50" width="130" height="50" rx="6" fill="#1e293b" stroke="#64748b" stroke-width="2"/>
  <text x="385" y="75" text-anchor="middle" font-size="12" fill="#f1f5f9" font-weight="bold">Analyzer</text>
  <text x="385" y="92" text-anchor="middle" font-size="10" fill="#cbd5e1">Color Clustering</text>
  <line x1="450" y1="75" x2="490" y2="75" stroke="#64748b" stroke-width="2" marker-end="url(#arrowhead)"/>
  <rect x="490" y="50" width="110" height="50" rx="6" fill="#1e293b" stroke="#64748b" stroke-width="2"/>
  <text x="545" y="75" text-anchor="middle" font-size="12" fill="#f1f5f9" font-weight="bold">Formatter</text>
  <text x="545" y="92" text-anchor="middle" font-size="10" fill="#cbd5e1">CSS/Tailwind</text>
  <line x1="600" y1="75" x2="640" y2="75" stroke="#64748b" stroke-width="2" marker-end="url(#arrowhead)"/>
  <rect x="640" y="50" width="60" height="50" rx="6" fill="#3b82f6" stroke="#1e40af" stroke-width="2"/>
  <text x="670" y="75" text-anchor="middle" font-size="12" fill="#f1f5f9" font-weight="bold">Output</text>
  <text x="670" y="92" text-anchor="middle" font-size="10" fill="#cbd5e1">JSON</text>
  <rect x="30" y="130" width="160" height="140" rx="6" fill="#1e293b" stroke="#64748b" stroke-width="1"/>
  <text x="110" y="150" text-anchor="middle" font-size="11" font-weight="bold" fill="#e2e8f0">Scraper</text>
  <text x="40" y="170" font-size="10" fill="#cbd5e1">Load page via Puppeteer</text>
  <text x="40" y="188" font-size="10" fill="#cbd5e1">Extract computed styles</text>
  <text x="40" y="206" font-size="10" fill="#cbd5e1">DOM traversal</text>
  <text x="40" y="224" font-size="10" fill="#cbd5e1">Bypass JS rendering</text>
  <text x="40" y="242" font-size="10" fill="#cbd5e1">5000+ samples</text>
  <rect x="205" y="130" width="160" height="140" rx="6" fill="#1e293b" stroke="#64748b" stroke-width="1"/>
  <text x="285" y="150" text-anchor="middle" font-size="11" font-weight="bold" fill="#e2e8f0">Analyzer</text>
  <text x="215" y="170" font-size="10" fill="#cbd5e1">Color clustering</text>
  <text x="215" y="188" font-size="10" fill="#cbd5e1">Dark mode detection</text>
  <text x="215" y="206" font-size="10" fill="#cbd5e1">Typography scales</text>
  <text x="215" y="224" font-size="10" fill="#cbd5e1">Spacing patterns</text>
  <text x="215" y="242" font-size="10" fill="#cbd5e1">Visual grouping</text>
  <rect x="380" y="130" width="160" height="140" rx="6" fill="#1e293b" stroke="#64748b" stroke-width="1"/>
  <text x="460" y="150" text-anchor="middle" font-size="11" font-weight="bold" fill="#e2e8f0">Formatter</text>
  <text x="390" y="170" font-size="10" fill="#cbd5e1">CSS variables</text>
  <text x="390" y="188" font-size="10" fill="#cbd5e1">Tailwind config</text>
  <text x="390" y="206" font-size="10" fill="#cbd5e1">Raw JSON</text>
  <text x="390" y="224" font-size="10" fill="#cbd5e1">Save to file</text>
  <text x="390" y="242" font-size="10" fill="#cbd5e1">Pretty print</text>
  <rect x="555" y="130" width="145" height="140" rx="6" fill="#1e293b" stroke="#64748b" stroke-width="1"/>
  <text x="627" y="150" text-anchor="middle" font-size="11" font-weight="bold" fill="#e2e8f0">Output</text>
  <text x="565" y="170" font-size="10" fill="#cbd5e1">Design tokens</text>
  <text x="565" y="188" font-size="10" fill="#cbd5e1">Color palette</text>
  <text x="565" y="206" font-size="10" fill="#cbd5e1">Type system</text>
  <text x="565" y="224" font-size="10" fill="#cbd5e1">Spacing scale</text>
  <text x="565" y="242" font-size="10" fill="#cbd5e1">Effects/shadows</text>
  <defs>
    <marker id="arrowhead" markerWidth="10" markerHeight="10" refX="9" refY="3" orient="auto">
      <polygon points="0 0, 10 3, 0 6" fill="#64748b"/>
    </marker>
  </defs>
</svg>
